# xmcd CD database file
#
# Track frame offsets:
#	150
#	17055
#	27645
#	41655
#	64747
#	79472
#	95577
#	114912
#	138032
#	159042
#	161902
#	196116
#
# Disc length: 2870 seconds
#
# Revision: 0
# Processed by: cddbd v1.5.1PL2 Copyright (c) Steve Scherf et al.
# Submitted via: CDex 1.50Beta7
#
DISCID=950b340c
DTITLE=長見順 - 超スローブルース
DYEAR=2005
DGENRE=Blues
TTITLE0=サラリーマンのうた
TTITLE1=パパさん
TTITLE2=723
TTITLE3=あなたが後からついてくる
TTITLE4=昨日の夜、愛について考えてみたよ。
TTITLE5=本日の朝
TTITLE6=あなたのあたま
TTITLE7=舟歌 〜 I Love Rock'n Roll
TTITLE8=見下ろすだけ
TTITLE9=見下ろすだけ （完成）
TTITLE10=初雪
TTITLE11=サラリーマンのうた（PV）
EXTD=YEAR: 2005
EXTT0=
EXTT1=
EXTT2=
EXTT3=
EXTT4=
EXTT5=
EXTT6=
EXTT7=
EXTT8=
EXTT9=
EXTT10=
EXTT11=
PLAYORDER=
